<?xml version="1.0" encoding="utf-8"?>
<!-- Generator: Adobe Illustrator 26.5.0, SVG Export Plug-In . SVG Version: 6.00 Build 0)  -->
<svg version="1.1" id="Layer_1" xmlns="http://www.w3.org/2000/svg" xmlns:xlink="http://www.w3.org/1999/xlink" x="0px" y="0px"
	 viewBox="0 0 1820 504" style="enable-background:new 0 0 1820 504;" xml:space="preserve">
<style type="text/css">
	.st0{display:none;}
	.st1{display:inline;fill:#FFFFFF;}
</style>
<g class="st0">
	<path class="st1" d="M-15.2,38.4H85.7C167.5,38.4,187,83,187,122.1c0,44.1-31.8,64.1-42.3,68.6c14.6,5,51.8,24.1,51.8,72.7
		c0,66.8-42.7,93.2-110,93.2H-15.2V38.4z M24.8,175.2h63.6c44.5,0,57.3-22.7,57.3-51.8c0-35.9-22.3-49.5-55.5-49.5H24.8V175.2z
		 M24.8,321.1h64.1c47.3,0,66.4-21.8,66.4-58.2c0-23.6-13.6-53.2-65.5-53.2h-65C24.8,209.8,24.8,321.1,24.8,321.1z"/>
	<path class="st1" d="M359.8,295.2c0-2.3-0.5-4.5-0.9-7.7l-0.9-3.6h34l1.4,4.5c0.5,3.2,1.4,7.7,1.4,12.7c0,23.2-19.5,60-76.8,60
		c-67.3,0-103.2-44.1-103.2-113.2c0-64.1,31.4-123.2,98.6-123.2c56.8,0,86.4,41.8,86.4,90.5c0,14.1-1.8,27.7-4.1,36.4H252
		c1.4,43.2,19.1,75.5,64.1,75.5C352,327,359.8,308.9,359.8,295.2z M253.9,220.2h108.6c3.6-30.5-8.2-61.8-50.5-61.8
		C280.7,158.4,258.9,180.2,253.9,220.2z"/>
	<path class="st1" d="M462.5,356.6h-37.7V129.3h36.4v30.5h0.9c13.2-21.8,34.5-35,63.6-35c52.3,0,79.1,35.9,79.1,99.1v132.7h-38.2
		V228c0-56.8-25-67.3-49.1-67.3c-32.3,0-55,20.5-55,69.6L462.5,356.6L462.5,356.6z"/>
	<path class="st1" d="M641.6,204.3h296.8V238H641.6V204.3z"/>
	<path class="st1" d="M954.3,204.3c0-78.2,40.9-170.5,140.5-170.5c56.4,0,94.1,30.9,94.1,76.4c0,8.6-0.9,15-2.3,20
		c-0.5,3.2-1.4,5.9-1.8,8.2H1148l1.4-5.4c0.4-3.2,1.4-8.2,1.4-13.2c0-32.3-18.6-49.1-57.3-49.1c-58.2,0-97.7,51.8-97.7,133.6
		c0,88.2,44.1,120,92.7,120c42.3,0,63.2-20,63.2-52.7c0-5.9-0.4-11.8-1.8-15.9l-1.4-6.4h38.2c0.4,2.3,1.4,5,1.8,8.2
		c1.4,5,2.3,12.7,2.3,21.4c0,42.7-35,82.3-100,82.3C997.5,361.1,954.3,298.9,954.3,204.3z"/>
	<path class="st1" d="M1207.9,356.6V38.4h38.6v318.2H1207.9z"/>
	<path class="st1" d="M1448.4,356.6h-35.9v-27.3h-1.4c-12.3,18.2-36.8,31.8-66.4,31.8c-49.6,0-73.2-27.3-73.2-65.9
		c0-43.2,31.8-60,81.4-67.3c46.8-7.3,56.8-15.5,56.8-38.2c0-27.3-27.3-31.8-45.5-31.8c-31.4,0-49.1,10-49.1,33.2
		c0,5,0.9,9.5,2.3,13.2c0.5,1.8,1.4,3.2,2.3,4.6h-34.6l-2.7-6.8c-1.4-4.1-2.7-10.5-2.7-18.2c0-35,30-59.1,84.6-59.1
		c24.1,0,60,4.6,75.9,36.4c5.9,12.3,8.2,26.8,8.2,48.2L1448.4,356.6L1448.4,356.6z M1411.6,238.9h-1.4
		c-7.3,12.7-30.5,17.3-52.3,20.5c-36.4,5-49.1,15.9-49.1,35.9c0,18.6,10.9,33.2,41.8,33.2c40.5,0,60.9-28.2,60.9-57.3L1411.6,238.9
		L1411.6,238.9z"/>
	<path class="st1" d="M1635.7,177.5c0,8.6-1.4,15-2.7,20l-2.3,7.7h-35c0.4-1.4,1.4-3.2,1.8-5.4c1.4-3.6,2.3-8.2,2.3-13.6
		c0-16.4-9.1-26.4-25-26.4c-30.9,0-50.5,37.3-50.5,87.7v109.1h-37.7V129.3h35.5V162h0.9c5-8.6,22.7-37.3,59.6-37.3
		C1613.9,124.8,1635.7,146.1,1635.7,177.5z"/>
	<path class="st1" d="M1695.2,211.1l79.1-81.8h50.9l-99.6,100.5l109.6,126.8H1787l-91.8-106.4v106.4h-36.8V38.4h36.8V211.1z"/>
</g>
<image style="overflow:visible;" width="2850" height="784" xlink:href="A49ADD6438540D1.jpg"  transform="matrix(0.6439 0 0 0.6439 -3.0796 0.7071)">
</image>
</svg>
